<svg width="277" height="109" viewBox="0 0 277 109" fill="none" xmlns="http://www.w3.org/2000/svg">
<path fill-rule="evenodd" clip-rule="evenodd" d="M234.102 0.619214C234.102 5.74981 229.943 9.90899 224.813 9.90899C219.682 9.90899 215.523 5.74981 215.523 0.619214C215.523 0.411141 215.53 0.204665 215.543 0H0V109H215.543C215.862 104.158 219.89 100.329 224.813 100.329C229.735 100.329 233.764 104.158 234.082 109H276.216V0H234.082C234.096 0.204665 234.102 0.411141 234.102 0.619214Z" fill="white"/>
<path d="M23.168 39.221C21.4 39.221 19.887 38.507 18.799 37.368L19.751 36.297C20.635 37.232 21.893 37.844 23.185 37.844C24.817 37.844 25.803 37.028 25.803 35.804C25.803 34.529 24.902 34.121 23.729 33.594L21.927 32.812C20.771 32.319 19.394 31.435 19.394 29.616C19.394 27.695 21.06 26.301 23.321 26.301C24.8 26.301 26.109 26.93 26.993 27.848L26.16 28.851C25.395 28.137 24.477 27.678 23.321 27.678C21.91 27.678 20.992 28.392 20.992 29.514C20.992 30.721 22.08 31.18 23.049 31.588L24.834 32.353C26.279 32.982 27.401 33.832 27.401 35.685C27.401 37.657 25.769 39.221 23.168 39.221ZM29.8436 39V26.522H31.4246V31.758H37.2386V26.522H38.8026V39H37.2386V33.118H31.4246V39H29.8436ZM46.8187 39.221C43.6907 39.221 41.4977 36.722 41.4977 32.727C41.4977 28.732 43.6907 26.301 46.8187 26.301C49.9467 26.301 52.1397 28.732 52.1397 32.727C52.1397 36.722 49.9467 39.221 46.8187 39.221ZM46.8187 37.844C49.0457 37.844 50.5247 35.838 50.5247 32.727C50.5247 29.599 49.0457 27.678 46.8187 27.678C44.5747 27.678 43.1127 29.599 43.1127 32.727C43.1127 35.838 44.5747 37.844 46.8187 37.844ZM54.8289 39V26.522H58.3989C61.1869 26.522 63.0569 27.474 63.0569 30.194C63.0569 32.829 61.2039 34.053 58.4669 34.053H56.4099V39H54.8289ZM56.4099 32.778H58.2629C60.4559 32.778 61.4929 31.979 61.4929 30.194C61.4929 28.392 60.3879 27.814 58.1949 27.814H56.4099V32.778ZM69.3719 39V26.522H71.0039L75.5429 34.393L76.8689 36.96H76.9539C76.8689 35.702 76.7499 34.308 76.7499 33.016V26.522H78.2459V39H76.6309L72.0919 31.129L70.7489 28.562H70.6809C70.7489 29.82 70.8679 31.146 70.8679 32.455V39H69.3719ZM86.2474 39.221C83.1194 39.221 80.9264 36.722 80.9264 32.727C80.9264 28.732 83.1194 26.301 86.2474 26.301C89.3754 26.301 91.5684 28.732 91.5684 32.727C91.5684 36.722 89.3754 39.221 86.2474 39.221ZM86.2474 37.844C88.4744 37.844 89.9534 35.838 89.9534 32.727C89.9534 29.599 88.4744 27.678 86.2474 27.678C84.0034 27.678 82.5414 29.599 82.5414 32.727C82.5414 35.838 84.0034 37.844 86.2474 37.844ZM95.5184 39L92.8834 26.522H94.4984L95.8074 33.322C96.0454 34.665 96.3004 36.008 96.5384 37.351H96.6064C96.8954 36.008 97.2014 34.665 97.5074 33.322L99.2244 26.522H100.669L102.403 33.322C102.709 34.648 102.998 35.991 103.287 37.351H103.372C103.61 35.991 103.848 34.648 104.086 33.322L105.395 26.522H106.908L104.324 39H102.437L100.55 31.486C100.329 30.5 100.142 29.599 99.9384 28.647H99.8704C99.6664 29.599 99.4454 30.5 99.2414 31.486L97.3884 39H95.5184ZM107.587 41.38V40.343H116.631V41.38H107.587ZM127.073 39.221C123.979 39.221 121.65 36.824 121.65 32.778C121.65 28.749 124.013 26.301 127.175 26.301C128.688 26.301 129.878 27.049 130.592 27.848L129.742 28.868C129.096 28.171 128.263 27.678 127.192 27.678C124.829 27.678 123.265 29.616 123.265 32.727C123.265 35.872 124.761 37.844 127.141 37.844C128.331 37.844 129.232 37.317 130.031 36.45L130.898 37.436C129.912 38.575 128.688 39.221 127.073 39.221ZM137.264 39.221C134.136 39.221 131.943 36.722 131.943 32.727C131.943 28.732 134.136 26.301 137.264 26.301C140.392 26.301 142.585 28.732 142.585 32.727C142.585 36.722 140.392 39.221 137.264 39.221ZM137.264 37.844C139.491 37.844 140.97 35.838 140.97 32.727C140.97 29.599 139.491 27.678 137.264 27.678C135.02 27.678 133.558 29.599 133.558 32.727C133.558 35.838 135.02 37.844 137.264 37.844ZM149.694 39.221C147.161 39.221 145.223 37.861 145.223 33.849V26.522H146.804V33.9C146.804 36.909 148.079 37.844 149.694 37.844C151.36 37.844 152.669 36.909 152.669 33.9V26.522H154.182V33.849C154.182 37.861 152.244 39.221 149.694 39.221ZM157.526 39V26.522H161.096C163.884 26.522 165.754 27.474 165.754 30.194C165.754 32.829 163.901 34.053 161.164 34.053H159.107V39H157.526ZM159.107 32.778H160.96C163.153 32.778 164.19 31.979 164.19 30.194C164.19 28.392 163.085 27.814 160.892 27.814H159.107V32.778ZM172.874 39.221C169.746 39.221 167.553 36.722 167.553 32.727C167.553 28.732 169.746 26.301 172.874 26.301C176.002 26.301 178.195 28.732 178.195 32.727C178.195 36.722 176.002 39.221 172.874 39.221ZM172.874 37.844C175.101 37.844 176.58 35.838 176.58 32.727C176.58 29.599 175.101 27.678 172.874 27.678C170.63 27.678 169.168 29.599 169.168 32.727C169.168 35.838 170.63 37.844 172.874 37.844ZM180.885 39V26.522H182.517L187.056 34.393L188.382 36.96H188.467C188.382 35.702 188.263 34.308 188.263 33.016V26.522H189.759V39H188.144L183.605 31.129L182.262 28.562H182.194C182.262 29.82 182.381 31.146 182.381 32.455V39H180.885Z" fill="#E77003"/>
<path d="M20.87 86V81.835H26.435V65.455H21.745V62.27C24.335 61.78 26.12 61.115 27.765 60.065H31.58V81.835H36.445V86H20.87ZM45.1204 86C45.5754 77.005 47.0804 71.265 52.0154 64.405H40.3604V60.065H57.5804V63.215C51.5604 70.565 50.7554 75.85 50.3354 86H45.1204ZM66.6407 76.025C62.9307 76.025 60.3407 72.98 60.3407 67.765C60.3407 62.585 62.9307 59.61 66.6407 59.61C70.3507 59.61 72.9757 62.585 72.9757 67.765C72.9757 72.98 70.3507 76.025 66.6407 76.025ZM66.6407 73.12C68.1457 73.12 69.3357 71.58 69.3357 67.765C69.3357 63.95 68.1457 62.515 66.6407 62.515C65.1357 62.515 63.9807 63.95 63.9807 67.765C63.9807 71.58 65.1357 73.12 66.6407 73.12ZM67.5157 86.49L81.5857 59.61H84.6307L70.5607 86.49H67.5157ZM85.4707 86.49C81.7957 86.49 79.1707 83.41 79.1707 78.23C79.1707 73.015 81.7957 70.04 85.4707 70.04C89.1457 70.04 91.8057 73.015 91.8057 78.23C91.8057 83.41 89.1457 86.49 85.4707 86.49ZM85.4707 83.55C86.9757 83.55 88.1657 82.045 88.1657 78.23C88.1657 74.415 86.9757 72.945 85.4707 72.945C83.9657 72.945 82.8107 74.415 82.8107 78.23C82.8107 82.045 83.9657 83.55 85.4707 83.55Z" fill="black"/>
<path d="M225.543 16.8909L225.543 54.647L225.543 92.4031" stroke="#DADADA" stroke-linecap="square" stroke-dasharray="3 3"/>
</svg>
